<?xml version="1.0" encoding="utf-8"?>
<!-- Generator: Adobe Illustrator 23.0.3, SVG Export Plug-In . SVG Version: 6.00 Build 0)  -->
<svg version="1.1" xmlns="http://www.w3.org/2000/svg" xmlns:xlink="http://www.w3.org/1999/xlink" x="0px" y="0px"
	 viewBox="0 0 1280 1280" style="enable-background:new 0 0 1280 1280;" xml:space="preserve">
<style type="text/css">
	.st0{fill-rule:evenodd;clip-rule:evenodd;fill:#005667;}
	.st1{fill-rule:evenodd;clip-rule:evenodd;fill:#E7470B;}
	.st2{fill-rule:evenodd;clip-rule:evenodd;fill:#30A541;}
	.st3{display:none;}
	.st4{display:inline;}
	.st5{fill-rule:evenodd;clip-rule:evenodd;fill:#444545;}
</style>
<g id="Layer_1">
	<path class="st0" d="M540.49,620.05l0-120.05c28.77-0.12,60.49-2.47,86.26,6.79c22.33,8.03,39.51,24.11,40.04,53.06
		c0.54,29.37-17.68,45.29-40.06,53.03C600.48,621.95,569.55,619.98,540.49,620.05L540.49,620.05z M540.49,471.53l0-93.34
		c21.23,0.47,47.67-1.31,66.44,5.23c16.86,5.87,31.05,18.79,31,41.09C637.84,477.23,584.69,471.62,540.49,471.53L540.49,471.53z
		 M491.93,399.86l0,201.44c0,11.15-1.31,22.16-5.99,30.78c-3.8,7-9.68,12.49-16.34,16.18c-1.89,1.05-1.87,0.6-2.21,2.36
		c5.14,1.2,82.27,0.4,94.25,0.39c37.61-0.01,74.91-1.02,107.76-17.45c40.51-20.27,62.4-67.08,42.83-109.44
		c-4.51-9.77-10.49-16.22-16.63-22.19c-9.53-9.26-23.26-16.87-36.77-21.46l-13.92-4c-1.77-0.76-0.39-0.1-1.2-0.65
		c27.15-4.61,45.84-28.27,45.84-60.21c0-23.49-12.89-37.8-25.1-46.71c-31.94-23.32-86.41-18.46-125.36-18.46
		c-15.57,0-59.78-0.76-71.78,0.1C468.08,356.14,491.93,356.4,491.93,399.86z"/>
	<path class="st0" d="M779.4,404.05v196.72c0,23.04-3.37,38.21-22.41,49.59c-1.72,1.03-2.04,0.84-2.16,2.7l83.62,0.15
		c-0.19-3.55-4.17-2.63-10.37-8.94c-1.57-1.6-3.24-2.82-4.67-4.76c-8.83-12.01-9.51-23.55-9.51-39.79l0.01-178
		c2.09,1.23,94.99,122.01,101.37,130.61c11.26,15.18,26.06,33.78,37.89,48.66c10.43,13.12,31.68,32.86,43.72,43.36
		c3.93,3.43,28.67,23.39,34.4,23.36l-0.01-255.8c0-22.71-0.63-42.75,18.52-56.22c4.42-3.11,5.64-2.53,6.09-5.28l-82,0.13
		c-1.05,0.25-0.73,0.15-1.3,0.52c2.31,4.7,21.74,7.31,24.16,38.89c1.49,19.46,0.45,42.46,0.45,62.35c0,11.37,0.64,117.95-0.1,126.09
		c-0.43-0.57-1.61-1.85-2.3-2.79L844.43,379.8c-3.72-4.77-7.14-9.35-10.74-14.44c-6.42-9.08-3.71-3.44-8.79-13.22
		c-1.34-2.58,0.16-0.9-1.57-1.73l-68.55,0.01c0.3,2.25,6.58,5.44,10.6,8.78C777.76,369.49,779.4,388.14,779.4,404.05z"/>
	<path class="st0" d="M1133.31,399.86l0,205.12c-0.01,41.75-24.24,42.94-24.38,47.97c5.73,1,96.77,0.26,97.8-0.23
		c-0.59-2.88-4.32-2.48-10-7.88c-11.36-10.81-14.36-22.53-14.36-39.33V398.28c0-19.41,4.18-33,19.3-43.3
		c3.15-2.15,4.31-1.96,5.14-3.91c-0.12-0.08-0.32-0.32-0.4-0.2l-97.55-0.45c0.45,3.04-0.95,0.5,4.83,4.49
		C1129.69,365.93,1133.31,379.14,1133.31,399.86z"/>
	<path class="st1" d="M72.02,400.38c0.05,3.72,3.54,6.29,6.74,10.37c2.58,3.29,5.24,6.18,7.85,9.46l31.37,37.86
		c5.65,6.59,10.41,12.75,15.97,19.17c5.32,6.14,10.21,12.66,15.67,18.94l47.54,56.96c2.38-1.16,5.99-4.47,8.44-6.36
		c3.31-2.55,23.21-17.8,24.46-19.46c-3.36-4.7-7.33-9.41-11.13-14.44c-27.43-36.35-54.42-82.46-54.42-130.88
		c0-12.78,2.66-20.51,5.29-31.48l-97.79-0.11L72.02,400.38z"/>
	<path class="st1" d="M383.15,560.27c0.67-36.4,0.09-77.95,0.06-115.34c0-4.11-2.57-5.58-7.19-9.43
		c-11.02-9.18-25.27-19.54-44.68-21.4c-22.1-2.11-37.54,8.76-47.42,19.03c-19.89,20.68-15.87,48.55-2.04,73.45
		c4.24,7.63,8.67,13.27,13.49,19.56c8.14,10.6,23.05,24.36,35.24,30.85C345.84,565.11,366.46,569.51,383.15,560.27z"/>
	<path class="st1" d="M249.41,475.21c1.89-8.47,2.41-15.59,4.98-23.87c10.98-35.39,41.34-61.39,78.43-66.94
		c8.89-1.33,18.19-1.3,27.2-0.01c9.41,1.36,21.89,5.88,23.14,5.97v-39.72l-171.85-0.23c-1.15,0.29-1.13,0.56-1.67,3.76
		c-5.79,34.11,4.9,67.77,21.97,96.71C236.55,459.25,243.51,469.52,249.41,475.21z"/>
	<path class="st1" d="M210.04,568.07c0.94,2.97,26.04,32.11,30.49,37.59c1.48,1.82,3.3,3.35,4.89,5.08
		c5.47,5.95,13.48,13.04,21.56,17.26c7.35,3.84,14.71,6.1,23.47,5.26c2.6-0.25,6.07-1.67,7.84-0.93
		c-0.21,2.85-18.13,14.24-21.85,18.72l106.66-0.04l0.07-70.9c-2.2,0.65-11,5.12-17.47,7.24c-35.55,11.65-68.38,0.67-96.04-20.77
		c-12.59-9.75-15.82-14.2-26.34-24.03c-2.34,1.15-6.23,4.6-8.38,6.32C231.43,551.65,212.39,567.01,210.04,568.07z"/>
	<path class="st1" d="M72.02,650.86c2.1-0.81,9.6-7.21,11.7-8.81l35.35-27.59c5.33-4.23,46-35.52,47.06-37.3l-23.33-27.97
		c-1.86-2.37-3.87-4.68-5.69-6.9c-7.1-8.61-63.49-76.77-65.04-77.75L72.02,650.86z"/>
	<path class="st1" d="M103.87,651.04c38.3,0.57,80.45,0.06,119.17,0.05c-2.1-9.75-28.66-39.62-38.13-51.16
		c-1.73-2.11-4.12-5.4-6.1-6.98l-65.7,50.69C110.61,645.6,105.5,648.99,103.87,651.04z"/>
	<g>
		<path class="st2" d="M1115.81,866.24l27.23,0.06c0.15-17.87,0.01-35.79,0.01-53.66c0-9.23-0.4-15.68,4.29-22.61
			c8.24-12.19,28.88-12.81,35.85-1.15c4.11,6.88,3.62,14.34,3.62,23.26c0,17.99-0.28,36.2,0.02,54.16l26.98-0.02
			c-0.01-15.85,0-31.49,0-47.12c0-14.86,1.47-30.34-5.32-42.06c-9.51-16.4-34.23-18.27-51.18-10.66c-2.89,1.3-5.35,2.71-7.68,4.34
			c-2.53,1.78-4.47,3.96-6.8,5.48l-0.01-59.15l-26.93-0.12L1115.81,866.24z"/>
		<path class="st2" d="M550.55,838.3c-1.64,2.77-9.54,14.08-9.98,16.42c13,13.43,44.46,18.37,65.49,9.44
			c21.77-9.25,32.6-33.54,19.75-54.16c-5.2-8.34-13.25-16.02-20.35-21.73c-5.48-4.41-18.93-14.72-23.02-19.04
			c-2.88-3.04-7.27-7.52-6.93-14.2c0.77-15.07,19.37-17.12,34.55-9.93c2.65,1.25,4.74,2.88,6.98,3.8c2.89-4.89,7.32-9.89,9.88-14.73
			c-21.48-21.98-80.17-14.59-80.96,21.36c-0.15,6.73,1.12,12.1,3.82,17.32c11.32,21.82,49.26,34.2,51.81,54.39
			c1.7,13.5-7.72,21.64-20.03,22.28C564.04,850.42,556.12,840.63,550.55,838.3z"/>
		<path class="st2" d="M642.74,767.56c1.32,5.71,37.87,89.61,38.17,92.3c0.26,2.32-5.73,16.28-7.08,19
			c-9.27,18.73-15.23,19.99-32.62,20.05l-0.2,18.13c27.39,0.04,32.84-2.62,45.31-18.68c8.51-10.97,14.8-28.41,21.37-42.74
			c6.69-14.62,13.04-29.28,19.58-44.03l19.7-44.67l-23.17-4.23c-1.39,4.93-17.25,44.94-21.08,55.89
			c-2.16,6.18-4.13,13.28-6.52,19.01l-26.33-74.79L642.74,767.56z"/>
		<path class="st2" d="M817.9,807.56c2.21,39.19-22.08,49.58-31.2,38.83c-6.44-7.59-4.57-19.64,3.45-27.49
			c3.13-3.07,7.92-5.13,12.84-6.71C807.4,810.77,813.54,808.39,817.9,807.56L817.9,807.56z M764.07,776.07
			c0.78,2.8,6.56,9.2,8.11,12.74c3.19-1.11,10.12-9.47,25.23-10.2c10-0.48,19.97,6.2,20.2,14.99c-3.37,1.78-15.87,4.99-20.42,6.29
			c-7.03,2.01-13.94,4.12-19.85,7.17c-11.54,5.97-21.63,14.9-20.96,32.64c0.57,15.15,10.82,26.92,24.67,28.79
			c11.54,1.56,20.32-4.34,28.83-10.84l7.56-5.9c0.4,6.69,0.62,8.71,2.44,14.52l28.77,0.02c-2.25-8.02-3.7-11.74-4.04-21.09
			c-0.3-8.41-0.09-17.12-0.09-25.56c0-15.3,1.8-33.6-6.56-44.05c-7.06-8.83-21.13-13.85-37.05-13.36
			C788.14,762.63,772.27,767.4,764.07,776.07z"/>
		<path class="st2" d="M1063.19,807.6c2.59,52.28-39.66,52.11-34.56,23.36c1.06-5.99,3.83-9.42,7.11-12.33
			C1040.28,814.59,1056.97,808.43,1063.19,807.6L1063.19,807.6z M1009.34,776.07c0.6,1.78,7.07,10.96,8.56,12.8
			c6.43-4.82,13.05-9.55,24.36-10.24c10.68-0.64,20.3,6.34,20.63,14.97c-13.5,7.22-62.97,8.41-61.26,46.1
			c1.01,22.12,22.59,37.85,45.56,23.44c5.18-3.25,14.7-10.97,15.55-11.42c0.21,6.61,0.5,8.95,2.41,14.56l28.76,0.01
			c-2.28-9.24-3.56-8.34-4.05-21.09c-0.32-8.37-0.08-17.14-0.08-25.56c0-15.15,1.69-33.46-6.52-44.02
			c-11.24-14.46-40-16.69-58.22-9.27C1020.09,768.38,1012.11,772.97,1009.34,776.07z"/>
		<path class="st2" d="M897.65,782.43l-0.15-17.65l-26.81-0.06l-0.17,101.47l27.24,0.12c0.02-11.92-0.54-47.55,0.28-56.66
			c0.83-9.29,3.42-15.47,8.8-19.77c2.64-2.11,6.62-3.4,11.23-3.12c5.31,0.32,7.08,2.07,11.1,3.31l9.87-18.44
			c-3.84-4.95-14.61-12.7-24.47-8.08c-3.14,1.48-7.33,6.22-9.33,8.7L897.65,782.43z"/>
		<polygon class="st2" points="951.94,866.3 979.18,866.29 979.19,764.85 951.94,764.72 		"/>
		<path class="st2" d="M962.39,718.92c-21.2,4.39-14.59,36.49,6.76,32.13c7.57-1.55,14.39-9.89,12.26-19.8
			C979.86,724.04,971.5,717.03,962.39,718.92z"/>
	</g>
</g>
<g id="slogan" class="st3">
	<g class="st4">
		<path class="st5" d="M71,1003.04l5.12,0.02l0.13-36.64c1.9,3.64,5.26,12.66,8.14,18.42c1.49,2.99,2.84,5.9,4.27,8.96
			c1.2,2.54,3.66,6.94,4.34,9.23l2.86,0.03l13.64-27.03c1.06-2.13,3.42-8.07,4.47-9.44l0.05,36.38l6.35,0.09l0-45.47l-5.79-0.04
			c-2.15,2.61-18.04,35.35-19.38,36.67l-8.61-18.36c-1.41-3.07-2.89-6.13-4.36-9.18c-0.8-1.65-3.75-8.2-4.57-9.11l-6.57-0.02
			L71,1003.04z"/>
		<path class="st5" d="M565.19,974.3c14.49-3.37,15.53,21.53,4.74,24.94c-7.24,2.28-10.92-3.91-11.75-10.01
			C557.36,983.2,558.5,975.86,565.19,974.3L565.19,974.3z M577.11,998.23c0.17,6.86-0.24,12.86-5.23,15.57
			c-5.31,2.88-12.54,0.69-16.99-1.49c-0.85,0.9-1.4,2.57-1.7,3.98c5.32,1.86,9.52,4.07,17.1,2.69c14.79-2.7,12.74-17.47,12.74-28.03
			c0-6.77,0.12-13.65-0.02-20.41l-5.87,0.03l-0.03,4.12c-2.39-2-2.83-3.66-7.2-4.62c-9.12-2-18.46,5.55-18.28,16.88
			c0.12,7.67,3.26,13.08,8.32,15.56c4.45,2.18,9.71,1.8,13.89-1.21c2.4-1.73,1.52-1.45,2.68-2.59
			C576.96,998.29,576.57,998.57,577.11,998.23z"/>
		<path class="st5" d="M184.59,981.84c0.79,0.44,0.38,18.59,0.38,21l5.58,0c0-3.42-0.61-19.42,0.35-21.17
			c0.33-8.48,11.76-9.67,14.31-3.51c2.28,5.51-0.06,18.35,1.06,24.79l5.63,0.12c0.54-2.64,0.13-11.62,0.13-14.89
			c0-4.63,0.48-9.58-1.62-13.37c-3.09-5.58-9.94-6.23-15.98-3.41c-2.07,0.97-3.29,2.33-4.91,3.03c-1.66-2.65-5.28-4.68-10.01-4.66
			c-5.24,0.03-7.47,2.46-10.11,4.49l-0.06-3.67l-5.82-0.06l-0.01,32.48l5.9,0.05c-0.01-5.41-0.74-20.76,1.05-24.56
			C173.56,971.94,184.86,973.17,184.59,981.84z"/>
		<path class="st5" d="M1139.4,988.18c-0.71,6.37-3.9,12.24-10.95,11.38c-5.97-0.72-8.37-7.9-8.06-14.47
			c0.31-6.68,3.72-12.13,11.07-10.98C1137.46,975.05,1140.15,981.47,1139.4,988.18L1139.4,988.18z M1139.55,974.42
			c-2.09-1.85-3.1-3.53-7.46-4.36c-3.56-0.68-7.17-0.08-9.85,1.47c-4.54,2.63-8.43,8.07-8.22,15.75c0.21,7.55,3.41,13.12,8.55,15.41
			c4.47,2,9.98,1.54,13.87-1.55c1.42-1.13,1.77-1.97,3.01-3.03l0.11,4.93l5.88,0.06l0-47.78l-5.85,0.01L1139.55,974.42z"/>
		<path class="st5" d="M235.27,974.25c14.17-3.35,14.48,23.57,3.57,25.27c-7.17,1.12-11.05-4.44-11.47-10.88
			C226.97,982.57,228.63,975.82,235.27,974.25L235.27,974.25z M221.42,1002.98l5.9,0.11l0-4.08c1.57,0.73,2.47,3.41,7.31,4.54
			c3.44,0.8,7.16,0.04,9.87-1.44c10.99-5.99,11.46-26.48-0.3-31.24c-3.06-1.24-7.01-1.47-10.11-0.42c-3.48,1.18-4.8,3-6.73,5
			l-0.05-20.14l-5.85,0.02L221.42,1002.98z"/>
		<path class="st5" d="M712.04,974.16c14.27-2.6,14.01,24.27,2.85,25.42c-7.2,0.74-10.81-4.77-11.06-11.39
			C703.58,981.24,705.92,975.28,712.04,974.16L712.04,974.16z M697.93,1003.07l5.9,0l0.02-4.09c1.11,0.85,1.52,1.63,3.08,2.72
			c4.1,2.86,9.8,2.74,13.96,0.49c10.96-5.92,11.57-26.08,0.1-31.18c-2.89-1.28-6.88-1.65-10.07-0.64c-5.04,1.59-6.1,4.29-7.09,5
			l-0.01-20.03l-5.83-0.03L697.93,1003.07z"/>
		<path class="st5" d="M1036.86,977.62l-0.05-20.07l-6.34,0.01l0,45.51l6.35,0.01l0-23.42c1.96,1.81,19.17,22.85,19.83,24.02
			l6.33-2.26c-0.67-1.42-1.38-1.77-2.34-2.95c-0.81-1-1.6-1.84-2.4-2.84c-3.05-3.79-12.84-14.38-14.94-17.23
			c0.62-1.18,11.11-11.87,12.9-13.85c1.25-1.37,3.25-3.22,4.47-4.69c-0.83-0.91-2.96-2.31-4.23-2.82l-4.88,5.03
			c-1.59,1.81-3.28,3.39-4.91,5.25c-1.61,1.83-3.3,3.42-4.91,5.25L1036.86,977.62z"/>
		<path class="st5" d="M1187.33,1003.03l5.79,0.04c1.88-10.94-4.52-28.11,8.27-28.94c6.5-0.42,8.44,3.96,8.47,10.04
			c0.03,6.3,0,12.6,0,18.9l5.9-0.03c0-6.98,1.07-23.49-1.71-28.49c-2.94-5.3-10.74-5.91-16.34-3.24c-3.27,1.56-3.17,2.25-4.58,3.01
			l-0.02-19.03l-5.76,0.03L1187.33,1003.03z"/>
		<path class="st5" d="M331.17,1003.07l5.9-0.01l0.01-17.56c1.26,1.19,2.49,2.91,3.56,4.33c1.27,1.68,2.36,2.99,3.65,4.66l7.23,9.13
			l5.63-2.47c-0.67-1.46-2.19-2.93-3.26-4.25l-10.12-12.41c0.33-0.69,4.63-5.01,5.5-5.95l5.71-6.05c-0.05-0.06-0.14-0.21-0.17-0.16
			l-1.88-1.24c-0.81-0.45-1.38-0.86-2.42-1.13l-11.29,12.38c-0.71,0.71-0.78,1.28-2.14,1.27l0-28.27l-5.84-0.04L331.17,1003.07z"/>
		<path class="st5" d="M784.59,1003.02l5.77,0.05l0.13-17.5l10.75,13.5c1.07,1.42,2.7,3.17,3.41,4.58l5.95-2.54
			c-0.89-1.85-11.93-14.12-13.43-16.63c2.71-3.49,10.5-10.59,11.26-12.26l-4.24-2.29l-11.44,12.4c-0.86,1.05-0.67,1.23-2.25,1.35
			l0-28.3l-5.87-0.06L784.59,1003.02z"/>
		<path class="st5" d="M835.58,995.35c-0.83,1.29-1.74,2.28-2.6,3.6c2.68,4.21,13.38,6.82,20.74,2.83
			c6.4-3.47,8.31-11.77,2.87-18.38c-4.68-5.69-12.1-8.8-14.57-13.13c-2.26-3.97,0.54-7.73,3.92-8.61c5.22-1.37,8.37,2.38,10.55,2.86
			l2.56-3.13c-5.01-7.78-25.8-5.74-24.03,7.9c0.59,4.56,3.28,6.68,5.56,8.58c2.58,2.14,5.45,3.81,7.96,5.89
			c10.61,8.81,2.3,19.43-8.63,14.17C838.14,997.07,837.06,996.03,835.58,995.35z"/>
		<path class="st5" d="M980.45,984.12c0.21,4.39-0.54,8.62-2.68,11.56c-6.94,9.5-15.36-2.11-7.73-7.73
			C972.19,986.36,977.26,984.76,980.45,984.12L980.45,984.12z M963.25,974.02c0.55,1.3,1.38,1.93,2.05,3.06
			c1.16-0.39,2.19-1.6,3.84-2.35c5.9-2.67,11.11,0.08,11.23,5.42c-8.31,2.36-19.96,4.76-19.3,14.79c0.33,4.99,3.5,8.53,8.32,8.87
			c5.29,0.38,8.61-4.06,10.97-6.04c0.28,2.26,0.27,3.28,0.88,5.28l6.44,0.02c-4.26-15.96,4.93-33.09-13.08-33.29
			C968.09,969.71,966.87,971.59,963.25,974.02z"/>
		<path class="st5" d="M753.89,984.19c0.82,12.62-8.05,17.96-11.92,13.53c-2.79-3.19-1.18-7.74,1.57-9.81
			C745.32,986.58,751.16,984.5,753.89,984.19L753.89,984.19z M736.71,973.93c0.32,1.03,1.38,2.38,2.19,3.09
			c1.63-0.69,4.14-3.71,8.93-3.33c3.26,0.25,5.87,3.01,6.01,6.38c-6.83,2.73-20.19,4.05-19.32,14.9c0.62,7.65,8.04,11.61,14.84,6.76
			c1.69-1.21,3.03-3.13,4.49-3.91c0.42,6.51,0.27,5.26,7.27,5.26c-3.01-11.89,0.47-22.55-2.7-28.27c-1.77-3.2-5.24-4.95-10.3-5.01
			C741.73,969.7,740.48,971.46,736.71,973.93z"/>
		<path class="st5" d="M379.38,984.26c0.21,4.62-0.47,8.37-2.76,11.5c-6.7,9.19-15.44-1.85-7.55-7.86
			C370.59,986.74,377.08,984.24,379.38,984.26L379.38,984.26z M362.16,973.88c0.37,1.27,1.42,2.39,2.27,3.14
			c2.33-1.4,4.64-3.72,8.93-3.34c3.36,0.3,5.85,2.89,5.9,6.51c-3.13,0.63-10.04,2.98-12.65,4.32c-3.6,1.85-7.18,4.92-6.6,10.76
			c0.76,7.52,8.19,11.19,14.85,6.43c1.08-0.77,3.91-3.66,4.46-3.82c0.16,2.09,0.33,3.33,0.81,5.12l6.45,0.07
			c-4.28-15.44,4.98-32.98-12.92-33.28C367.31,969.68,365.77,971.55,362.16,973.88z"/>
		<path class="st5" d="M500.61,984.26c0.19,4.69-0.46,8.31-2.76,11.5c-6.65,9.2-15.47-1.94-7.55-7.86
			C491.84,986.74,498.28,984.24,500.61,984.26L500.61,984.26z M483.45,974.33c0.53,0.91,1.46,2.04,2.21,2.69
			c2.4-1.39,4.57-3.71,8.93-3.33c3.39,0.29,5.86,2.9,5.9,6.51c-3.02,0.61-10.16,3.01-12.66,4.32c-14.04,7.33-3.48,25.63,8.27,17.2
			c1.03-0.74,3.99-3.68,4.46-3.83c0.13,2.21,0.2,3.18,0.81,5.1l6.45,0.1c-4.31-14.98,5.14-33.2-13.23-33.29
			C490.76,969.76,484.99,971.35,483.45,974.33z"/>
		<path class="st5" d="M1172.08,984.16c0.19,4.35-0.53,8.48-2.66,11.47c-6.64,9.32-15.59-1.39-7.72-7.72
			C1163.36,986.58,1169.39,984.53,1172.08,984.16L1172.08,984.16z M1154.86,973.96c0.36,1.01,1.4,2.33,2.19,3.06
			c1.44-0.58,4.02-3.69,8.93-3.34c3.25,0.23,5.94,3.05,6.01,6.39c-6.8,2.75-20.14,4.01-19.3,14.9c0.58,7.59,7.96,11.63,14.83,6.77
			c1.74-1.23,3.03-3.12,4.53-3.98c0.27,6.62,0.43,5.32,7.23,5.31c-2.95-12.31,0.37-22.73-2.7-28.28
			c-3.04-5.51-11.75-6.03-16.86-3.94C1157.44,971.8,1156.39,972.95,1154.86,973.96z"/>
		<path class="st5" d="M1085.53,984.25c0.18,4.65-0.48,8.34-2.77,11.49c-6.67,9.19-15.47-1.88-7.55-7.86
			C1076.78,986.71,1083.19,984.25,1085.53,984.25L1085.53,984.25z M1068.43,974.02c0.21,1.12,1.37,2.37,2.16,2.99
			c2.38-1.44,4.61-3.7,8.93-3.33c3.36,0.29,5.87,2.95,5.88,6.5c-3.19,0.67-10.14,2.99-12.84,4.43c-13.68,7.24-3.37,25.52,8.46,17.08
			c0.96-0.69,1.71-1.29,2.37-1.94c0.77-0.76,1-1.49,2.14-1.93c0.02,2.21,0.15,3.24,0.75,5.18l6.46,0.08
			c-3.12-10.96,0.46-22.44-2.65-28.23C1086.31,967.83,1073.71,968.48,1068.43,974.02z"/>
		<path class="st5" d="M947.82,999.52l0.04,3.51l5.84,0.05l0-32.52l-5.89-0.01c-0.09,6.2,0.07,12.4-0.01,18.57
			c-0.08,5.53-2.57,10.21-7.98,10.39c-6.36,0.2-8.02-4.29-8.01-10.4c0.01-6.15,0.08-12.37-0.01-18.51l-5.87-0.05
			c-0.11,6.44-0.94,23.59,1.5,28.19c1.66,3.14,4.79,5.05,9.62,5.11C943.12,1003.93,944.28,1001.53,947.82,999.52z"/>
		<path class="st5" d="M264.5,983.19c0.37-4.86,3.14-8.77,7.93-9.17c5.79-0.48,8.05,3.77,8.16,9.26L264.5,983.19L264.5,983.19z
			 M285.58,1000.14l-1.47-3.13c-2.72,0.77-7.8,4.56-13.69,1.5c-3.32-1.73-6.33-5.87-6.3-11.23l21.82-0.05
			c2.19-22.25-22.58-21.9-27.12-6.82c-2.49,8.26,0.5,16.86,5.58,20.42C271.33,1005.67,279.37,1004.23,285.58,1000.14z"/>
		<path class="st5" d="M134.88,983.27c0.42-4.96,3.12-8.87,8.01-9.25c5.9-0.46,7.84,3.81,8.12,9.26L134.88,983.27L134.88,983.27z
			 M155.97,1000.07c-0.44-1.08-0.98-2.3-1.7-3.06c-4.12,1.8-8.41,4.21-13.6,1.39c-3.37-1.83-6.08-5.71-6.18-11.17l21.85-0.01
			c2.12-22.05-22.21-22.16-27.13-6.88c-2.64,8.2,0.7,17.1,5.6,20.53C141.24,1005.37,150.27,1004.41,155.97,1000.07z"/>
		<path class="st5" d="M521.72,974.34l-0.06-3.8l-5.77,0.02l-0.01,32.44l5.85,0.09c0-6.2-0.05-12.42,0-18.61
			c0.05-5.56,2.4-10.04,8.3-10.35c6.45-0.34,8.35,3.98,8.34,10.06c-0.01,6.26,0,12.51,0,18.77l5.9,0.14
			c-0.02-6.61,1.14-24.1-1.76-28.67c-1.95-3.08-5.19-4.84-10.36-4.62C526.23,970.05,523.94,973.01,521.72,974.34z"/>
		<path class="st5" d="M872.26,983.28c0.39-5.13,3.15-8.97,8.17-9.27c5.77-0.35,7.69,3.82,7.95,9.26L872.26,983.28L872.26,983.28z
			 M893.35,1000.22l-1.6-3.3c-3.99,1.79-8.53,4.37-13.62,1.58c-3.71-2.03-6.07-5.73-6.27-11.19l21.84-0.06
			c2.37-21.85-22.32-22.24-27.15-6.77c-2.08,6.68-0.47,15.93,5.58,20.34c2.78,2.03,6.47,3.15,10.77,3.04
			C887.97,1003.72,889.99,1001.82,893.35,1000.22z"/>
		<path class="st5" d="M646.81,983.28c0.46-4.99,3.14-8.96,8.09-9.27c5.84-0.37,7.77,3.86,8.04,9.27L646.81,983.28L646.81,983.28z
			 M667.91,1000.3c-0.28-1.25-0.92-2.31-1.63-3.27c-2.22,0.75-3.27,1.8-6.3,2.36c-7.75,1.43-13.52-4.35-13.54-12.15l21.84-0.01
			c2.02-22.16-22.38-21.9-27.11-6.93c-2.66,8.43,0.63,17.12,5.62,20.6c4.37,3.05,10.89,3.92,16.39,1.74
			C665,1001.91,666.56,1000.82,667.91,1000.3z"/>
		<path class="st5" d="M417.07,982.78c0.61,1.54,0.24,17.55,0.25,20.06l5.58,0l-0.03-22.41c0.3-5.57-3.56-9.55-8.31-10.41
			c-8.05-1.45-11.8,3.07-14.09,4.26l-0.05-3.68l-5.77-0.05l-0.01,32.41l5.9,0.12c0-4.57,0-9.12,0-13.67c0-4.43-0.57-8.4,1.66-11.78
			C405.91,971.99,417.63,972.61,417.07,982.78z"/>
		<path class="st5" d="M447.09,971.49c0.72,2.49,8.63,20.42,10.32,24.32c2.42,5.58,3.23,4.81-0.6,12.46
			c-2.63,5.24-3.51,6.67-10.7,6.87l-0.19,4.14c12.81,0.57,14.72-7.98,19.96-20.1l9.27-20.9c0.93-2.02,2.43-5.05,3.02-7.03
			l-5.14-1.37l-10.15,26l-9.87-25.88L447.09,971.49z"/>
		<path class="st5" d="M606.65,962.14l14.51,0.02l0.01,40.88l6.15,0.05c0.48-1.65,0.19-36.12,0.19-40.84l14.53-0.1l0.1-4.53
			l-35.4-0.06L606.65,962.14z"/>
		<path class="st5" d="M900.32,996.48c-0.53,0.7-2.31,2.65-2.62,3.44c10.32,8.92,26.28,0.91,20.12-10.05
			c-2.42-4.3-7.14-6.07-10.79-9.52c-2.28-2.15-2.12-5.23,1.13-6.3c3.25-1.07,5.61,0.5,7.96,1.62c0.91-0.71,1.58-1.73,2.23-2.88
			c-2.78-3.79-10.85-3.69-15-1.08c-5.23,3.3-4.62,9.45-0.2,13.13c4.11,3.42,9.86,5.88,9.87,10.11c0,3-2.42,4.69-5.51,4.66
			C903.55,999.58,902.03,997.09,900.32,996.48z"/>
		<path class="st5" d="M298.92,974.29l-0.11-3.75l-5.54,0l-0.14,32.51l5.76,0.02c1.28-7.69-1.81-21.68,2.43-26.29
			c2.09-2.27,4.89-1.06,7.41-0.11c0.77-0.6,2.27-2.95,2.69-3.83C304.83,965.82,300.96,973.01,298.92,974.29z"/>
		<path class="st5" d="M681.23,974.2l-0.01-3.66l-5.77,0.01l-0.02,32.5l5.9,0.01c-0.01-6.98-1.44-22.21,2.45-26.3
			c2.47-2.6,4.74-0.91,7.39-0.04l2.55-3.6c-0.94-1.71-3.73-3.87-6.58-3.16C683.78,970.8,683.23,973.27,681.23,974.2z"/>
		<polygon class="st5" points="1100.77,1003.04 1106.67,1003.08 1106.67,970.55 1100.78,970.55 		"/>
		<polygon class="st5" points="315.72,1003.07 321.62,1003.05 321.62,970.63 315.74,970.53 		"/>
		<polygon class="st5" points="995.68,1003.08 1001.58,1003.04 1001.58,970.66 995.7,970.53 		"/>
		<polygon class="st5" points="769.14,1002.94 775.04,1003.09 775.04,970.54 769.15,970.57 		"/>
		<path class="st5" d="M1102.42,956.59c-4.39,1.42-2.54,8.74,2.71,7.05C1109.18,962.34,1107.61,954.92,1102.42,956.59z"/>
		<path class="st5" d="M317.3,956.66c-4.19,1.47-2.45,8.49,2.62,7.02C324.18,962.44,322.68,954.77,317.3,956.66z"/>
		<path class="st5" d="M770.64,956.73c-4.55,2.01-1.74,8.77,3.04,6.83C777.76,961.91,775.54,954.56,770.64,956.73z"/>
		<path class="st5" d="M997.29,956.65c-4.23,1.47-2.49,8.57,2.65,7.01C1004.13,962.39,1002.6,954.8,997.29,956.65z"/>
	</g>
</g>
</svg>
